<svg width="1043" height="935" viewBox="0 0 1043 935" fill="none" xmlns="http://www.w3.org/2000/svg">
<g clip-path="url(#clip0_215_521)">
<g filter="url(#filter0_f_215_521)">
<path d="M1138.37 611.6C1148.54 778.205 1226.58 907.195 1054.94 922.121C883.307 937.047 735.927 814.087 725.76 647.481C715.594 480.876 797.24 661.826 1016.62 294.077C1188.26 279.151 1128.2 444.994 1138.37 611.6Z" fill="#201F82"/>
</g>
<g filter="url(#filter1_f_215_521)">
<path d="M1064.35 704.455C1201.46 769.632 958.783 1062.64 1256.18 1194.24C1011.7 1022.25 1182.11 1136.23 1045 1071.05C907.887 1005.88 730.44 1019.66 759.648 958.212C788.856 896.768 927.236 639.278 1064.35 704.455Z" fill="#FFA800"/>
</g>
<g filter="url(#filter2_f_215_521)">
<path d="M801.495 715.607C1034.05 826.151 622.449 1323.12 1126.85 1546.31C712.203 1254.6 1001.23 1447.93 768.678 1337.38C536.126 1226.84 235.166 1250.21 284.705 1145.99C334.243 1041.78 568.943 605.062 801.495 715.607Z" fill="#A9E4FF"/>
</g>
</g>
<defs>
<filter id="filter0_f_215_521" x="524.924" y="93.1396" width="839.924" height="1030.21" filterUnits="userSpaceOnUse" color-interpolation-filters="sRGB">
<feFlood flood-opacity="0" result="BackgroundImageFix"/>
<feBlend mode="normal" in="SourceGraphic" in2="BackgroundImageFix" result="shape"/>
<feGaussianBlur stdDeviation="100" result="effect1_foregroundBlur_215_521"/>
</filter>
<filter id="filter1_f_215_521" x="556.459" y="493.968" width="899.719" height="900.271" filterUnits="userSpaceOnUse" color-interpolation-filters="sRGB">
<feFlood flood-opacity="0" result="BackgroundImageFix"/>
<feBlend mode="normal" in="SourceGraphic" in2="BackgroundImageFix" result="shape"/>
<feGaussianBlur stdDeviation="100" result="effect1_foregroundBlur_215_521"/>
</filter>
<filter id="filter2_f_215_521" x="79.2955" y="497.821" width="1247.55" height="1248.49" filterUnits="userSpaceOnUse" color-interpolation-filters="sRGB">
<feFlood flood-opacity="0" result="BackgroundImageFix"/>
<feBlend mode="normal" in="SourceGraphic" in2="BackgroundImageFix" result="shape"/>
<feGaussianBlur stdDeviation="100" result="effect1_foregroundBlur_215_521"/>
</filter>
<clipPath id="clip0_215_521">
<rect width="1043" height="935" fill="white"/>
</clipPath>
</defs>
</svg>
