<svg width="1043" height="935" viewBox="0 0 1043 935" fill="none" xmlns="http://www.w3.org/2000/svg">
<g clip-path="url(#clip0_287_23)">
<path d="M0.5 0H1043V1904H0.5L0.5 0Z" fill="url(#paint0_radial_287_23)"/>
<g filter="url(#filter0_d_287_23)">
<path d="M955.126 690.688L485.945 754.898C504.562 821.633 584.041 947.799 753.022 918.589C922.004 889.38 958.167 754.484 955.126 690.688Z" fill="#F79F1A" fill-opacity="0.6" shape-rendering="crispEdges"/>
</g>
<g filter="url(#filter1_d_287_23)">
<path d="M479.733 709.494L948.914 645.283L953.056 675.553L483.875 739.763L479.733 709.494Z" fill="#F79F1A" fill-opacity="0.6" shape-rendering="crispEdges"/>
</g>
<g filter="url(#filter2_d_287_23)">
<mask id="mask0_287_23" style="mask-type:alpha" maskUnits="userSpaceOnUse" x="667" y="751" width="133" height="133">
<path fill-rule="evenodd" clip-rule="evenodd" d="M798.526 808.416C803.513 844.857 778.817 877.385 742.376 882.372C705.934 887.36 673.407 862.663 668.419 826.222C663.432 789.781 688.128 757.253 724.57 752.266C761.011 747.278 793.539 771.975 798.526 808.416ZM755.932 787.737L703.889 794.859L711.012 846.902L763.054 839.779L755.932 787.737Z" fill="#C4C4C4"/>
</mask>
<g mask="url(#mask0_287_23)">
<path d="M303.853 572.578C289.662 453.567 362.218 343.885 465.912 327.598L691.217 292.208C794.91 275.92 890.475 359.195 904.666 478.206L935.501 736.793C949.692 855.804 877.136 965.486 773.442 981.774L548.137 1017.16C444.444 1033.45 348.879 950.177 334.688 831.165L303.853 572.578Z" fill="white" fill-opacity="0.5"/>
</g>
</g>
<g filter="url(#filter3_d_287_23)">
<path d="M1113.05 297.748L824.098 508.081L834.365 520.908L1124.09 316.163L1113.05 297.748Z" fill="white" fill-opacity="0.6" shape-rendering="crispEdges"/>
<path d="M1099.81 382.108L882.433 514.33L892.699 527.157L1110.84 400.524L1099.81 382.108Z" fill="white" fill-opacity="0.6" shape-rendering="crispEdges"/>
</g>
<g filter="url(#filter4_d_287_23)">
<path fill-rule="evenodd" clip-rule="evenodd" d="M547.183 627.844C536.771 629.269 526.351 636.115 516.031 650.143C512.983 654.285 507.545 654.576 503.884 650.794C500.223 647.011 499.726 640.586 502.774 636.444C514.878 619.992 528.725 609.812 544.421 607.664C560.117 605.516 576.19 611.601 592.269 624.196C605.98 634.935 617.855 638.73 628.267 637.305C638.679 635.88 649.099 629.034 659.42 615.006C671.524 598.554 685.371 588.374 701.067 586.226C716.762 584.078 732.835 590.163 748.915 602.758C762.625 613.497 774.501 617.292 784.913 615.867C795.325 614.442 805.745 607.596 816.065 593.568C826.364 579.571 842.358 532.576 856.996 525.727C862.648 523.083 867.405 521.586 870.892 526.042C874.38 530.498 873.538 536.062 867.895 540.583C855.21 550.747 839.643 593.239 829.322 607.267C817.218 623.719 803.37 633.899 787.675 636.047C771.979 638.195 755.906 632.109 739.827 619.515C726.116 608.776 714.24 604.981 703.828 606.406C693.417 607.831 682.997 614.677 672.676 628.705C660.572 645.157 646.725 655.337 631.029 657.485C615.333 659.633 599.26 653.548 583.181 640.953C569.471 630.214 557.595 626.419 547.183 627.844Z" fill="#FF004D" fill-opacity="0.6" shape-rendering="crispEdges"/>
</g>
<g filter="url(#filter5_d_287_23)">
<path d="M633.973 407.464C633.876 424.041 630.96 440.56 620.559 451.005L630.869 456.101C642.438 444.461 644.95 426.075 645.034 408.316L633.973 407.464ZM725.121 394.842C721.914 408.147 715.172 426.964 709.529 438.681L719.251 441.639C725.224 430.173 732.27 412.497 737.516 397.878L725.121 394.842ZM667.112 375.125L673.549 422.161C675.854 439.001 671.175 480.459 624.795 505.736C627.581 507.721 631.807 511.58 633.596 513.849C672.5 491.221 681.28 457.04 682.237 442.416C687.067 456.1 705.864 487.543 750.169 497.895C751.329 494.483 754.052 489.525 756.037 486.74C703.238 475.923 687.448 437.266 685.163 420.571L678.726 373.536L667.112 375.125Z" fill="#FF004D" fill-opacity="0.6" shape-rendering="crispEdges"/>
<path d="M634.089 405.968L632.483 405.844L632.473 407.455C632.376 423.961 629.454 439.946 619.496 449.946L618.023 451.425L619.894 452.35L630.204 457.446L631.172 457.924L631.933 457.158C643.962 445.055 646.45 426.103 646.534 408.323L646.541 406.928L645.149 406.821L634.089 405.968ZM725.478 393.385L724.016 393.026L723.663 394.49C720.481 407.693 713.774 426.41 708.178 438.03L707.418 439.606L709.092 440.116L718.814 443.074L720.006 443.437L720.581 442.332C726.603 430.774 733.676 413.021 738.928 398.384L739.49 396.817L737.873 396.421L725.478 393.385ZM666.908 373.639L665.422 373.842L665.626 375.328L672.063 422.364C674.305 438.748 669.78 479.511 624.078 504.419L621.972 505.566L623.925 506.958C626.626 508.882 630.738 512.647 632.418 514.778L633.225 515.8L634.35 515.145C669.334 494.798 680.339 465.194 683.063 448.304C690.432 463.895 709.984 490.046 749.828 499.356L751.152 499.665L751.589 498.378C752.692 495.133 755.338 490.306 757.258 487.61L758.596 485.733L756.338 485.27C704.304 474.61 688.869 436.588 686.649 420.368L680.212 373.332L680.008 371.846L678.522 372.049L666.908 373.639Z" stroke="#FF004D" stroke-opacity="0.6" stroke-width="3" shape-rendering="crispEdges"/>
</g>
</g>
<defs>
<filter id="filter0_d_287_23" x="465.945" y="670.688" width="509.353" height="272.219" filterUnits="userSpaceOnUse" color-interpolation-filters="sRGB">
<feFlood flood-opacity="0" result="BackgroundImageFix"/>
<feColorMatrix in="SourceAlpha" type="matrix" values="0 0 0 0 0 0 0 0 0 0 0 0 0 0 0 0 0 0 127 0" result="hardAlpha"/>
<feOffset/>
<feGaussianBlur stdDeviation="10"/>
<feComposite in2="hardAlpha" operator="out"/>
<feColorMatrix type="matrix" values="0 0 0 0 0.968627 0 0 0 0 0.623529 0 0 0 0 0.101961 0 0 0 0.6 0"/>
<feBlend mode="normal" in2="BackgroundImageFix" result="effect1_dropShadow_287_23"/>
<feBlend mode="normal" in="SourceGraphic" in2="effect1_dropShadow_287_23" result="shape"/>
</filter>
<filter id="filter1_d_287_23" x="459.733" y="625.283" width="513.323" height="134.481" filterUnits="userSpaceOnUse" color-interpolation-filters="sRGB">
<feFlood flood-opacity="0" result="BackgroundImageFix"/>
<feColorMatrix in="SourceAlpha" type="matrix" values="0 0 0 0 0 0 0 0 0 0 0 0 0 0 0 0 0 0 127 0" result="hardAlpha"/>
<feOffset/>
<feGaussianBlur stdDeviation="10"/>
<feComposite in2="hardAlpha" operator="out"/>
<feColorMatrix type="matrix" values="0 0 0 0 0.968627 0 0 0 0 0.623529 0 0 0 0 0.101961 0 0 0 0.6 0"/>
<feBlend mode="normal" in2="BackgroundImageFix" result="effect1_dropShadow_287_23"/>
<feBlend mode="normal" in="SourceGraphic" in2="effect1_dropShadow_287_23" result="shape"/>
</filter>
<filter id="filter2_d_287_23" x="647.78" y="731.626" width="171.386" height="171.386" filterUnits="userSpaceOnUse" color-interpolation-filters="sRGB">
<feFlood flood-opacity="0" result="BackgroundImageFix"/>
<feColorMatrix in="SourceAlpha" type="matrix" values="0 0 0 0 0 0 0 0 0 0 0 0 0 0 0 0 0 0 127 0" result="hardAlpha"/>
<feOffset/>
<feGaussianBlur stdDeviation="10"/>
<feComposite in2="hardAlpha" operator="out"/>
<feColorMatrix type="matrix" values="0 0 0 0 1 0 0 0 0 1 0 0 0 0 1 0 0 0 0.5 0"/>
<feBlend mode="normal" in2="BackgroundImageFix" result="effect1_dropShadow_287_23"/>
<feBlend mode="normal" in="SourceGraphic" in2="effect1_dropShadow_287_23" result="shape"/>
</filter>
<filter id="filter3_d_287_23" x="804.098" y="277.748" width="339.987" height="269.409" filterUnits="userSpaceOnUse" color-interpolation-filters="sRGB">
<feFlood flood-opacity="0" result="BackgroundImageFix"/>
<feColorMatrix in="SourceAlpha" type="matrix" values="0 0 0 0 0 0 0 0 0 0 0 0 0 0 0 0 0 0 127 0" result="hardAlpha"/>
<feOffset/>
<feGaussianBlur stdDeviation="10"/>
<feComposite in2="hardAlpha" operator="out"/>
<feColorMatrix type="matrix" values="0 0 0 0 1 0 0 0 0 1 0 0 0 0 1 0 0 0 0.6 0"/>
<feBlend mode="normal" in2="BackgroundImageFix" result="effect1_dropShadow_287_23"/>
<feBlend mode="normal" in="SourceGraphic" in2="effect1_dropShadow_287_23" result="shape"/>
</filter>
<filter id="filter4_d_287_23" x="480.777" y="503.204" width="412.192" height="174.705" filterUnits="userSpaceOnUse" color-interpolation-filters="sRGB">
<feFlood flood-opacity="0" result="BackgroundImageFix"/>
<feColorMatrix in="SourceAlpha" type="matrix" values="0 0 0 0 0 0 0 0 0 0 0 0 0 0 0 0 0 0 127 0" result="hardAlpha"/>
<feOffset/>
<feGaussianBlur stdDeviation="10"/>
<feComposite in2="hardAlpha" operator="out"/>
<feColorMatrix type="matrix" values="0 0 0 0 1 0 0 0 0 0 0 0 0 0 0.301961 0 0 0 0.6 0"/>
<feBlend mode="normal" in2="BackgroundImageFix" result="effect1_dropShadow_287_23"/>
<feBlend mode="normal" in="SourceGraphic" in2="effect1_dropShadow_287_23" result="shape"/>
</filter>
<filter id="filter5_d_287_23" x="595.488" y="350.157" width="185.667" height="187.595" filterUnits="userSpaceOnUse" color-interpolation-filters="sRGB">
<feFlood flood-opacity="0" result="BackgroundImageFix"/>
<feColorMatrix in="SourceAlpha" type="matrix" values="0 0 0 0 0 0 0 0 0 0 0 0 0 0 0 0 0 0 127 0" result="hardAlpha"/>
<feOffset/>
<feGaussianBlur stdDeviation="10"/>
<feComposite in2="hardAlpha" operator="out"/>
<feColorMatrix type="matrix" values="0 0 0 0 1 0 0 0 0 0 0 0 0 0 0.301961 0 0 0 0.6 0"/>
<feBlend mode="normal" in2="BackgroundImageFix" result="effect1_dropShadow_287_23"/>
<feBlend mode="normal" in="SourceGraphic" in2="effect1_dropShadow_287_23" result="shape"/>
</filter>
<radialGradient id="paint0_radial_287_23" cx="0" cy="0" r="1" gradientUnits="userSpaceOnUse" gradientTransform="translate(886.5 952) rotate(90) scale(937.5 885.5)">
<stop stop-color="#F79F1A" stop-opacity="0.85"/>
<stop offset="1" stop-color="#FF004D" stop-opacity="0"/>
</radialGradient>
<clipPath id="clip0_287_23">
<rect width="1198.22" height="1905" fill="white"/>
</clipPath>
</defs>
</svg>
